<?xml version="1.0" encoding="utf-8"?>
<!DOCTYPE svg PUBLIC "-//W3C//DTD SVG 1.0//EN" "http://www.w3.org/TR/2001/REC-SVG-20010904/DTD/svg10.dtd">
<svg version="1.0" xmlns="http://www.w3.org/2000/svg" width="640px" height="640px" viewBox="0 0 640 640" preserveAspectRatio="xMidYMid meet">
 <g fill="#fffefe">
  <path d="M0 320 l0 -320 320 0 320 0 0 320 0 320 -320 0 -320 0 0 -320z m214.06 245.63 l3.06 -3.13 -1.88 0 c-1.31 0 -2.44 0.63 -3.69 1.88 l-1.81 1.88 -14.19 0 c-13.69 0 -15.63 0.25 -14.63 1.88 0.25 0.38 6 0.63 15.19 0.63 l14.88 0 3.06 -3.13z m27.25 -2.63 l5.19 -5.81 -4.63 -0.19 -4.63 -0.19 -4.88 4.88 c-7.19 7.13 -7.19 7.06 -1.25 7.06 l4.94 0 5.25 -5.75z m12.75 2 c3 -3 3.44 -3.75 2.44 -3.75 -1.63 0 -3.94 1.75 -6.50 5 -3.25 4.06 -0.31 3.19 4.06 -1.25z m14.63 0 c3 -3.44 3.13 -3.75 1.81 -3.75 -1.44 0 -2.44 0.88 -6.69 5.81 l-1.50 1.69 1.56 0 c1.13 0 2.44 -1 4.81 -3.75z m14.44 0 c2.25 -2.63 2.94 -3.75 2.19 -3.75 -1.69 0 -3.19 1.06 -5.94 4.38 -2.56 3.06 -2.56 3.13 -1.06 3.13 1.13 0 2.44 -1.06 4.81 -3.75z m-133.88 -24.19 c-0.63 -0.13 -1.63 -0.13 -2.19 0 -0.63 0.19 -0.13 0.31 1.06 0.31 1.19 0 1.69 -0.13 1.13 -0.31z m25.75 -17.75 c2.25 -0.25 0.94 -0.38 -4.06 -0.38 -5 0 -6.31 0.13 -4.06 0.38 l3.44 0.38 0.31 9.06 0.25 9.06 0.38 -9.06 0.31 -9.06 3.44 -0.38z m23.06 12.13 c-0.06 -4.94 -0.19 -5.75 -0.63 -4.06 -0.38 1.19 -1 2 -1.69 2.06 -0.81 0 -0.69 0.19 0.38 0.56 1.19 0.50 1.38 1.06 1.38 4.06 0 1.88 0.13 3.44 0.31 3.44 0.19 0 0.31 -2.75 0.25 -6.06z m7.63 -0.81 c0 -3.50 -0.13 -6.56 -0.38 -6.75 -0.19 -0.19 -0.31 2.88 -0.31 6.75 0 3.88 0.13 6.94 0.31 6.75 0.19 -0.19 0.38 -3.25 0.38 -6.75z m18.63 -3.06 c-0.25 -1.94 -0.38 -0.75 -0.38 3.69 0 5.31 0.06 5.88 0.38 2.88 0.25 -2.06 0.25 -5 0 -6.56z m28.88 -2.56 l1.94 0 -1.44 -2.31 c-3 -5.13 -3.06 -5 -2.94 5.44 0.13 7.75 0.19 8.38 0.31 3.31 l0.25 -6.44 1.88 0z m9.81 4.56 c-0.06 -5.19 -0.19 -6.38 -0.31 -3.44 -0.25 4.38 -0.31 4.50 -1.81 4.50 -0.88 0 -1.50 0.19 -1.38 0.50 1.13 2.38 3.31 6.38 3.44 6.38 0.13 0 0.13 -3.56 0.06 -7.94z m44.06 7.50 c-0.81 -0.13 -2.19 -0.13 -3.13 0 -1 0.13 -0.31 0.25 1.38 0.25 1.75 0 2.50 -0.13 1.75 -0.25z m40.94 0 c-0.63 -0.13 -1.63 -0.13 -2.19 0 -0.63 0.19 -0.13 0.31 1.06 0.31 1.19 0 1.69 -0.13 1.13 -0.31z m38.88 -17.75 c2.25 -0.25 0.94 -0.38 -4.06 -0.38 -5 0 -6.31 0.13 -4.06 0.38 l3.44 0.38 0.31 9.06 0.25 9.06 0.38 -9.06 0.31 -9.06 3.44 -0.38z m11.06 4 c-0.06 -2.69 -0.19 -0.50 -0.19 4.81 0 5.31 0.13 7.50 0.19 4.88 0.13 -2.69 0.13 -7.06 0 -9.69z m28.63 1.69 c0.88 0 1.56 -0.13 1.56 -0.31 0 -0.44 -3.25 -5.31 -3.50 -5.31 -0.13 0 -0.19 4.13 -0.13 9.25 0.13 7.81 0.19 8.25 0.31 2.81 0.25 -6.38 0.25 -6.44 1.75 -6.44z m10.19 3 c-0.13 -7.81 -0.19 -8.38 -0.31 -3.13 -0.25 6.31 -0.25 6.38 -1.75 6.38 -1.88 0 -1.94 0.25 -0.44 2.38 0.63 0.94 1.38 2.19 1.56 2.81 0.88 2.38 1.06 0.69 0.94 -8.44z m-193.19 -4.38 c-0.06 -2.50 -0.19 -0.50 -0.19 4.50 0 5 0.13 7 0.19 4.56 0.13 -2.50 0.13 -6.63 0 -9.06z m38.94 9.50 l0 -3.75 -2.31 0.06 c-2.31 0.06 -2.31 0.13 -0.50 0.50 1.81 0.38 1.88 0.56 1.88 3.69 -0.06 1.75 0.19 3.25 0.44 3.25 0.25 0 0.50 -1.69 0.50 -3.75z m74.19 -9.81 c-0.13 -2 -0.19 -0.50 -0.19 3.25 0 3.81 0.06 5.44 0.19 3.63 0.13 -1.81 0.13 -4.88 0 -6.88z m11.88 -1.25 c-0.13 -2 -0.19 -0.50 -0.19 3.25 0 3.81 0.06 5.44 0.19 3.63 0.13 -1.81 0.13 -4.88 0 -6.88z m48.75 3.75 c-0.13 -1.31 -0.25 -0.38 -0.25 2 0 2.44 0.13 3.44 0.25 2.38 0.13 -1.13 0.13 -3.13 0 -4.38z m-230.38 3.56 c-0.19 -0.19 -0.56 -0.56 -0.81 -0.88 -0.31 -0.31 -0.50 0.19 -0.50 1.13 0 1.38 0.13 1.56 0.88 0.88 0.50 -0.44 0.69 -0.94 0.44 -1.13z m83.50 -2.94 c-0.13 -1 -0.25 -0.19 -0.25 1.69 0 1.88 0.13 2.69 0.25 1.75 0.13 -1 0.13 -2.50 0 -3.44z m135 0 c-0.13 -1 -0.25 -0.19 -0.25 1.69 0 1.88 0.13 2.69 0.25 1.75 0.13 -1 0.13 -2.50 0 -3.44z m-65.63 -1.56 c-0.13 -0.81 -0.25 -0.19 -0.25 1.38 0 1.56 0.13 2.19 0.25 1.44 0.13 -0.81 0.13 -2.06 0 -2.81z m110.69 2.81 c-0.63 -0.13 -1.63 -0.13 -2.19 0 -0.63 0.19 -0.13 0.31 1.06 0.31 1.19 0 1.69 -0.13 1.13 -0.31z m-297.19 -8.75 c-0.81 -0.13 -2.19 -0.13 -3.13 0 -1 0.13 -0.31 0.25 1.38 0.25 1.75 0 2.50 -0.13 1.75 -0.25z m62.50 0 c-0.81 -0.13 -2.19 -0.13 -3.13 0 -1 0.13 -0.31 0.25 1.38 0.25 1.75 0 2.50 -0.13 1.75 -0.25z m18.75 0 c-0.81 -0.13 -2.19 -0.13 -3.13 0 -1 0.13 -0.31 0.25 1.38 0.25 1.75 0 2.50 -0.13 1.75 -0.25z m76.25 0 c-0.81 -0.13 -2.19 -0.13 -3.13 0 -1 0.13 -0.31 0.25 1.38 0.25 1.75 0 2.50 -0.13 1.75 -0.25z m142.50 0 c-0.81 -0.13 -2.19 -0.13 -3.13 0 -1 0.13 -0.31 0.25 1.38 0.25 1.75 0 2.50 -0.13 1.75 -0.25z m-285.19 -23.25 c0 -0.31 -1.13 -3.50 -2.50 -7.06 -2.38 -6.25 -12.38 -33.69 -14.75 -40.31 -0.88 -2.63 -1.38 -3.31 -2.50 -3.31 -1.81 0 -2.19 0.56 -5.13 7.69 l-2.50 6.06 1.69 0 c1.56 0 1.75 0.44 4.31 8 1.44 4.38 2.63 8.94 2.63 10.19 0 1.69 0.31 2.38 1.13 2.56 0.75 0.25 1.75 2.44 3.44 7.44 1.25 3.94 2.31 7.69 2.31 8.25 0 0.94 0.75 1.06 5.94 1.06 3.25 0 5.94 -0.25 5.94 -0.56z m55 0.25 c0 -0.19 -2.06 -6 -4.63 -12.94 -2.50 -7 -6.63 -18.38 -9.13 -25.31 -4.13 -11.44 -4.69 -12.69 -6 -12.69 -0.81 0 -1.63 0.38 -1.94 0.81 -0.75 1.13 -5.19 11.81 -5.19 12.44 0 0.25 0.69 0.50 1.50 0.50 1.31 0 1.75 0.81 4.38 8.31 1.56 4.56 2.88 9.06 2.88 10.06 0 1 0.38 2.13 0.88 2.50 0.88 0.75 5.38 13.63 5.38 15.56 0 0.94 0.69 1.06 5.94 1.06 3.25 0 5.94 -0.13 5.94 -0.31z m30 -12.75 c0 -7.19 0.19 -13.50 0.38 -14 0.25 -0.69 -0.13 -1 -1.38 -1.19 -1.50 -0.19 -2.13 -1.13 -5.94 -9.25 -2.38 -5 -4.50 -10.13 -4.69 -11.38 l-0.44 -2.38 -6.13 0 -6.19 0 3.63 7.38 c2.06 4 5 10 6.56 13.31 l2.94 5.94 0 12.31 0 12.31 5.63 0 5.63 0 0 -13.06z m59.25 12.31 c-0.13 -0.44 -4.44 -12 -9.56 -25.69 -9.06 -24.19 -9.31 -24.88 -10.88 -24.69 -1.38 0.19 -1.94 1.06 -4.25 6.44 -1.44 3.44 -2.69 6.44 -2.69 6.75 0 0.25 0.69 0.44 1.50 0.44 1.19 0 1.69 0.56 2.50 2.69 3.75 10.13 4.75 13.44 4.75 15.56 0 1.63 0.25 2.38 0.88 2.38 1 0 5.38 12.31 5.38 15.19 l0 1.69 6.31 0 c4.81 0 6.25 -0.19 6.06 -0.75z m17.44 -44.75 l2.31 0.19 8.31 15 c4.63 8.25 10.19 18.44 12.44 22.69 l4.06 7.63 3.75 0 3.69 0 0 -7.81 0 -7.81 -2 0 c-2.06 -0.06 -2.13 -0.19 -11.69 -17.81 l-9.56 -17.81 -7.13 0 -7.13 0 0.13 25.81 0.19 25.75 0.13 -23 0.19 -23 2.31 0.19z m110.31 32.56 c0.13 -7.19 0.13 -18.69 0 -25.63 l-0.19 -12.69 -5.44 0 -5.44 0 -0.06 25.63 -0.13 25.63 5.56 0 5.50 0 0.19 -12.94z m31.75 -12.69 l0 -25.63 -5.75 0 -5.81 0 0.19 10.63 c0.13 6.31 -0.06 11.44 -0.44 12.50 -0.38 1.25 -0.38 1.88 0 1.88 0.38 0 0.56 4.81 0.44 13.13 l-0.19 13.13 5.81 0 5.75 0 0 -25.63z m-87.94 22.38 c-1.38 -1.50 -2.88 -3.31 -3.25 -4.06 -1.25 -2.50 -2 -1.63 -1.81 2.19 l0.19 3.56 3.13 0.38 c1.75 0.19 3.38 0.44 3.75 0.44 0.31 0.06 -0.56 -1.06 -2 -2.50z m29.31 -6.06 c2.06 -4.19 1.94 -9.56 -0.25 -13.25 -2.38 -4.06 -6.13 -6.31 -16.13 -9.63 -7.31 -2.44 -9 -3.25 -10.63 -5.06 -1.63 -1.94 -1.88 -2.63 -1.88 -6 l0 -3.81 -1.31 1.19 c-1.69 1.56 -3.44 4.94 -3.94 7.88 -0.63 3.50 0.63 7.13 3.56 10.31 3.13 3.44 6.75 5.31 15.44 8.06 3.69 1.19 7.38 2.69 8.25 3.38 2.31 1.81 3.19 4.44 2.88 8.75 l-0.25 3.75 1.44 -1.38 c0.75 -0.75 2.06 -2.63 2.81 -4.19z m-135.13 -8.94 c0 -1.19 -0.13 -1.25 -0.63 -0.50 -0.81 1.19 -0.81 1.88 0 1.88 0.38 0 0.63 -0.63 0.63 -1.38z m133.13 -28 l0 -3.13 -2.50 0 -2.56 0 1.31 1.44 c0.75 0.75 1.81 2.13 2.38 3.13 0.56 0.94 1.13 1.69 1.19 1.69 0.13 0 0.19 -1.38 0.19 -3.13z m-104.13 -33.38 c3.25 -1.88 6.38 -5.94 7.31 -9.44 1.63 -6 -2.69 -13.63 -9.44 -16.50 l-3.13 -1.31 -0.13 -27.69 c-0.19 -27.13 -0.19 -27.63 -1.44 -27.63 -1.25 0 -1.25 0.50 -1.56 27.63 -0.19 15.19 -0.44 27.69 -0.63 27.81 -0.19 0.13 -1.50 0.75 -3 1.44 -3.06 1.31 -7.31 5.63 -8.63 8.75 -2.50 5.94 0.69 13.25 7.44 17.25 2.88 1.63 3.69 1.88 6.88 1.63 2.31 -0.19 4.56 -0.88 6.31 -1.94z m-59.94 -26.06 c3.44 -0.94 6.94 -3.44 9.13 -6.56 2.44 -3.56 3.06 -6.75 2.06 -10.56 -1.75 -6.56 -2 -6.19 8.81 -14 6.13 -4.44 9.81 -7.50 10 -8.38 0.19 -0.75 0.25 -4.88 0.19 -9.19 -0.19 -7.56 -0.25 -7.81 -1.56 -8 -1.44 -0.19 -1.44 -0.19 -1.44 9.19 l0 9.38 -4.88 3.69 c-12.81 9.81 -13.63 10.13 -19.63 7.31 -4.13 -1.94 -6.19 -1.94 -10.19 -0.06 -8.13 3.81 -11.63 11.94 -8 18.81 2.19 4.06 7.06 8.06 10.56 8.63 1 0.13 1.94 0.31 2.13 0.31 0.19 0.06 1.44 -0.19 2.81 -0.56z m112 -0.25 c5.69 -1.69 10.94 -8.25 10.94 -13.75 0 -5.25 -3.81 -10.69 -9.19 -13.19 -4 -1.88 -6.06 -1.88 -10.19 0.06 -6.25 2.88 -6.50 2.75 -23.56 -10.06 -1.13 -0.81 -1.31 -1.88 -1.56 -10.13 -0.25 -8.06 -0.44 -9.19 -1.38 -9.38 -1.06 -0.19 -1.13 0.56 -1.13 8.81 0 10.56 -1.13 8.75 10.94 17.44 9.06 6.56 9.19 6.75 7.81 12.88 -1.06 4.69 0 8.63 3.25 12.31 2.69 3.06 5.31 4.75 8.31 5.38 1.06 0.25 2.06 0.44 2.25 0.50 0.19 0 1.75 -0.38 3.50 -0.88z m-160 -48.56 c4.13 -1 9.19 -6.19 10.50 -10.75 0.94 -3.25 0.94 -3.56 -0.38 -7.06 -0.75 -2 -1.44 -4.88 -1.63 -6.44 -0.25 -2.75 -0.06 -3.06 5.88 -10.94 l6.19 -8.13 9.25 -0.19 c9.13 -0.19 9.19 -0.19 9 -1.56 -0.19 -1.31 -0.50 -1.38 -7.06 -1.56 -10.94 -0.31 -9.94 -0.88 -18.19 10.31 l-7.19 9.69 -2.31 -0.25 c-1.25 -0.19 -3.63 -0.69 -5.25 -1.13 -2.81 -0.81 -3 -0.81 -7.19 1.31 -4.75 2.38 -7.81 5.81 -8.94 10 -1.69 6.25 4.19 15.13 11.25 16.88 2.44 0.63 3 0.63 6.06 -0.19z m208.75 -0.19 c5.31 -1.56 10.81 -8.56 10.81 -13.69 0 -2.63 -1.63 -6.25 -3.94 -8.88 -4.25 -4.81 -9.38 -6.63 -14.13 -5 -5.50 2 -5.56 1.94 -12.56 -7.56 -3.44 -4.75 -6.63 -9.13 -7.13 -9.69 -0.69 -0.94 -2.31 -1.19 -10 -1.50 l-9.13 -0.44 0 1.63 0 1.69 9.25 0 9.19 0 6.06 8.31 c6.81 9.19 7.31 10.94 4.88 15.75 -2.88 5.69 -0.44 13.31 5.63 17.50 4.13 2.88 6.44 3.25 11.06 1.88z m-62.56 -20.38 c1.13 -0.69 2.69 -2.31 3.50 -3.56 l1.44 -2.31 0.06 -38.75 c0.06 -21.31 -0.06 -40.94 -0.31 -43.56 -0.50 -5.69 -1.63 -7.63 -5.69 -9.69 l-2.75 -1.44 -40.75 0 c-22.38 0 -41.63 0.19 -42.69 0.38 -1.13 0.25 -3.31 1.63 -4.94 3.06 l-2.94 2.69 0 43.94 0 44 1.56 2.06 c0.81 1.13 2.38 2.63 3.44 3.25 1.81 1.19 3.38 1.25 44.94 1.25 42.31 0 43.06 0 45.13 -1.31z m-173.69 -35 c3.75 -1 9.13 -6.13 10.25 -9.81 l0.75 -2.63 27.75 0 27.69 0 0 -1.56 0 -1.56 -27.75 0 -27.75 0 -0.44 -1.81 c-0.75 -3.44 -4.38 -7.31 -8.81 -9.50 -3.94 -1.94 -4.25 -2 -7 -1.25 -9.69 2.50 -15 11.19 -11.56 18.88 1.81 4 4.13 6.50 7.81 8.31 3.63 1.81 4.94 1.94 9.06 0.94z m264.19 -0.06 c1.63 -0.50 3.75 -1.94 5.81 -4 6.25 -6.19 6.44 -13.31 0.56 -19.50 -7.44 -7.94 -18.88 -5.44 -23.50 5.06 l-1.31 2.94 -27.75 0 -27.81 0 0 1.56 0 1.56 27.81 0 27.75 0 1.31 3 c2.44 5.44 8.25 10.06 12.75 10.13 1 0 2.94 -0.31 4.38 -0.75z m-197.75 -38 c0 -1.19 -0.44 -1.25 -9.06 -1.25 l-9.06 0 -1.06 -1.69 c-0.63 -1 -3.44 -4.94 -6.25 -8.88 -5.69 -7.81 -6.19 -9.38 -4 -13.69 2.50 -5 1.94 -9.75 -1.69 -14.38 -2.44 -3.06 -7.69 -5.94 -10.81 -5.94 -3.25 0 -8.88 2.88 -11.06 5.69 -2.81 3.56 -3.44 5.13 -3.44 8.56 0 3.69 1.31 6.56 4.50 9.88 4.31 4.56 8.75 5.81 14.13 3.88 4.88 -1.75 5.31 -1.56 10 5.19 2.38 3.31 5.56 7.81 7.13 10 l2.81 3.88 8.94 0 c8.50 0 8.94 -0.06 8.94 -1.25z m143.88 -1.69 c1.19 -1.69 4.25 -5.81 6.69 -9.25 2.50 -3.44 5 -6.50 5.50 -6.81 0.50 -0.25 2.25 -0.31 3.88 -0.06 1.56 0.19 3.94 0.56 5.19 0.75 5 0.69 11.13 -3.13 13.88 -8.69 2.81 -5.69 1.94 -10.31 -2.94 -15.13 -4.38 -4.31 -8.44 -5.75 -12.81 -4.44 -3.81 1.13 -8.31 5.06 -10.06 8.63 -1.63 3.38 -1.63 6.81 -0.06 10.38 2.44 5.25 1.94 6.88 -4.88 16.31 l-6.13 8.44 -9.19 0.19 c-8.69 0.13 -9.19 0.25 -9.19 1.38 0 1.19 0.44 1.25 8.94 1.25 l8.94 0 2.25 -2.94z m-104.81 -39.31 c0.25 -1.94 0.25 -6.13 0 -9.31 l-0.44 -5.81 -7.63 -5.50 c-13.25 -9.56 -11.81 -8.06 -11.31 -11.75 0.19 -1.75 0.56 -4.38 0.75 -5.81 0.63 -5.31 -3 -11 -8.88 -13.69 -3.94 -1.88 -6.06 -1.88 -10 0 -5.50 2.56 -9.63 8 -9.69 12.75 0 4.38 3.38 9.75 8 12.69 3.75 2.38 8 2.50 12.38 0.25 5.06 -2.56 6 -2.31 15.50 4.56 l8.44 6.06 0.06 9.56 c0 8.88 0.06 9.50 1.19 9.50 0.94 0 1.25 -0.63 1.63 -3.50z m24.56 -24.75 c0.13 -24.63 0.25 -28 1.13 -28 2.94 0 8.31 -4.50 10.69 -8.94 2.44 -4.56 0.75 -11.31 -3.88 -15.31 -4.81 -4.25 -9.19 -5.31 -13.69 -3.31 -4.50 1.94 -6.50 3.63 -8.50 7.13 -2.25 3.94 -2.44 7.63 -0.56 11.50 1.56 3.25 6.81 8.13 9.56 8.81 l1.94 0.50 0.19 28 0.13 27.94 1.44 -0.19 1.38 -0.19 0.19 -27.94z m23.88 19.13 c0 -10.56 -1.19 -8.56 10 -16.81 8.06 -5.94 10.25 -6.56 13.94 -3.94 2.25 1.63 7.50 2.19 10.63 1.19 3.25 -1.06 8.81 -7.31 9.69 -10.88 1.44 -5.69 -2.31 -12.56 -8.75 -15.81 -4 -2 -6.75 -1.94 -11.19 0.50 -6.25 3.31 -9.50 9.13 -8.13 14.63 0.38 1.50 0.69 3.88 0.69 5.38 l-0.06 2.69 -6.56 4.56 c-3.56 2.56 -7.94 5.75 -9.63 7.06 l-3.13 2.44 0 9.06 c0 8.63 0.06 9.06 1.25 9.06 1.19 0 1.25 -0.44 1.25 -9.13z"/>
 </g>
 <g fill="#e7a005">
  <path d="M179 569.75 c-0.19 -0.50 -0.25 -1.81 -0.13 -3 l0.19 -2.06 14.38 -0.19 14.31 -0.13 2 -1.94 c1.88 -1.81 2.06 -1.88 7.19 -1.69 l5.25 0.19 -4.63 4.88 -4.63 4.81 -16.81 0 c-13.81 0 -16.88 -0.13 -17.13 -0.88z"/>
  <path d="M221.25 570.13 c0 -0.31 3.19 -3.81 7.06 -7.88 l7 -7.31 69.56 -0.13 c61.50 -0.13 69.50 0 69.38 0.81 -0.19 0.81 -7.69 0.94 -62.13 1.13 l-61.88 0.13 -6.13 6.88 -6.13 6.88 -8.38 0 c-4.63 0 -8.38 -0.25 -8.38 -0.50z"/>
  <path d="M243.69 569.56 c0.31 -0.63 2.56 -3.19 4.88 -5.63 l4.25 -4.56 4.56 0 c2.44 0 4.50 0.25 4.50 0.50 0 0.31 -2.13 2.81 -4.75 5.63 l-4.75 5.13 -4.63 0 c-4.25 0 -4.63 -0.13 -4.06 -1.06z"/>
  <path d="M261.25 566 c5.69 -6.94 5.38 -6.69 11 -6.50 l4.88 0.19 -4.94 5.50 -4.94 5.44 -4.94 0 -4.88 0 3.81 -4.63z"/>
  <path d="M272.50 570.13 c0 -1.13 8.31 -10.13 9.63 -10.50 0.75 -0.19 3.13 -0.25 5.38 -0.13 l4 0.19 -4.94 5.50 -4.88 5.44 -4.63 0 c-2.50 0 -4.56 -0.25 -4.56 -0.50z"/>
  <path d="M289.38 569.06 l1.44 -1.56 44.06 0 44.06 0 -1.44 1.56 -1.44 1.56 -44.06 0 -44.06 0 1.44 -1.56z"/>
  <path d="M295 562.63 c0 -0.31 0.63 -1.13 1.44 -1.88 l1.44 -1.38 43.56 0 c46.06 0 45.44 -0.06 42.44 2.69 -1.06 1 -5.06 1.06 -45 1.06 -24.13 0 -43.88 -0.25 -43.88 -0.50z"/>
  <path d="M394.19 557.06 c-0.88 -0.25 -1 -0.50 -0.38 -1.19 0.50 -0.63 2.25 -0.88 6.38 -0.88 5.56 0 5.63 0 4.50 1.25 -0.94 1 -1.88 1.25 -5.25 1.19 -2.25 -0.06 -4.63 -0.19 -5.25 -0.38z"/>
  <path d="M408.88 557.06 c-0.63 -0.25 -0.63 -0.50 -0.06 -1.19 0.50 -0.63 2.25 -0.88 6.25 -0.88 5.50 0 6.25 0.31 4.81 1.75 -0.75 0.75 -9.31 1 -11 0.31z"/>
  <path d="M376.88 556.31 c0 -1 1.88 -1.31 7.56 -1.31 4.63 0 5.44 0.13 5.19 0.94 -0.31 0.75 -1.63 0.94 -6.56 0.94 -3.38 0 -6.19 -0.25 -6.19 -0.56z"/>
  <path d="M143.94 542.75 c-0.44 -0.19 -0.81 -1.19 -0.81 -2.19 l0 -1.81 4.56 0 c4.75 0 6.06 -0.56 6.06 -2.63 0 -1.38 -2.31 -2.38 -5.44 -2.38 -3.13 0 -5.81 -2.94 -5.81 -6.38 0 -4.94 2.50 -6.75 9.38 -6.75 l4.38 0 0 2.19 0 2.13 -4.50 0.19 -4.56 0.19 0 1.88 c0 1.81 0.13 1.88 3.75 2.31 3.13 0.38 4.06 0.81 5.56 2.44 1.56 1.75 1.75 2.38 1.44 4.81 -0.50 4.44 -2.31 5.81 -8.31 6.13 -2.69 0.13 -5.31 0.06 -5.69 -0.13z"/>
  <path d="M168.63 534.25 l-0.19 -8.94 -3.25 -0.19 -3.31 -0.19 0 -2.19 0 -2.13 9.06 0 9.06 0 0 2.13 0 2.19 -3.25 0.19 -3.31 0.19 -0.19 8.94 -0.19 8.88 -2.13 0 -2.13 0 -0.19 -8.88z"/>
  <path d="M183.75 534.38 l0 -8.75 2.06 -2.25 c1.75 -1.88 2.63 -2.31 5.19 -2.56 2.50 -0.25 3.44 0 5.25 1.19 3 2 3.69 4.50 3.69 13.50 l0.06 7.63 -2.19 0 -2.19 0 0 -3.44 c0 -3.13 -0.13 -3.50 -1.63 -4.06 -4.31 -1.69 -6.50 -0.19 -6.50 4.44 0 3 -0.06 3.06 -1.88 3.06 l-1.88 0 0 -8.75z m11.44 -3.94 c1.13 -2.94 -1.69 -6 -4.75 -5.19 -1.69 0.38 -3.19 3.44 -2.56 5.06 0.50 1.25 6.88 1.31 7.31 0.13z"/>
  <path d="M203.13 534.44 c0 -7.94 0.13 -8.81 1.38 -10.38 1.88 -2.44 4.81 -3.44 9.88 -3.44 l4.38 0 0 2.19 0 2.19 -4.38 0 c-5.38 0 -7.06 1.19 -6.75 4.88 l0.19 2.31 4.25 0.19 c4.19 0.19 4.19 0.19 4.19 2 l0 1.88 -4.38 0 -4.38 0 0 3.44 0 3.44 -2.19 0 -2.19 0 0 -8.69z"/>
  <path d="M221.88 535.13 c0 -6.50 0.19 -8.31 1.13 -10.06 1.69 -3.19 4.56 -4.44 9.94 -4.44 l4.56 0 0 2.19 0 2.19 -4.25 0 c-5.38 0 -6.56 0.75 -6.63 4.44 l-0.06 2.75 4.69 0.31 c2.56 0.19 4.63 0.50 4.56 0.81 -0.13 0.25 -0.19 1 -0.19 1.69 0 1.06 -0.50 1.19 -4.50 1.38 l-4.56 0.19 -0.19 3.31 -0.19 3.25 -2.19 0 -2.13 0 0 -8z"/>
  <path d="M241.25 531.88 l0 -11.31 2.06 0.19 2 0.19 0 10.94 0 10.94 -2 0.19 -2.06 0.19 0 -11.31z"/>
  <path d="M248.75 531.81 l0 -11.25 2.31 0.19 c2.19 0.19 2.50 0.50 5.75 6 1.94 3.19 3.56 5.63 3.63 5.31 0.06 -0.25 0.19 -2.88 0.31 -5.81 l0.19 -5.31 2.06 -0.19 2 -0.19 0 11.25 0 11.31 -2 0 c-1.94 -0.06 -2.25 -0.38 -5.50 -6.25 -1.88 -3.44 -3.63 -6.25 -3.88 -6.25 -0.31 0 -0.50 2.81 -0.50 6.25 l0 6.25 -2.19 0 -2.19 0 0 -11.31z"/>
  <path d="M272.13 541.94 c-2.81 -1.69 -4 -4.75 -4 -10.19 0 -5.44 1.25 -8.31 4.44 -10 5.13 -2.75 11.81 0.19 11.81 5.25 0 1.56 -0.19 1.75 -2.19 1.75 -1.75 0 -2.19 -0.25 -2.19 -1.25 0 -3.06 -5.81 -3.19 -6.94 -0.13 -1.06 2.69 -0.44 9.50 1 10.50 1.63 1.19 5.06 1.13 5.56 -0.13 0.56 -1.50 -0.13 -2.13 -2.25 -2.13 -1.44 0 -1.81 -0.25 -1.50 -1 0.19 -0.56 0.38 -1.50 0.38 -2.19 0 -1.06 0.50 -1.19 4.06 -1.19 l4.06 0 0 5.88 0 5.88 -5.19 0 c-4 0.06 -5.63 -0.19 -7.06 -1.06z"/>
  <path d="M300.63 540.94 l0 -2.19 4.25 0 c4.44 0 5.31 -0.31 5.94 -2 0.63 -1.69 -1.19 -3 -4.25 -3 -4.06 0 -6.56 -2.31 -6.56 -6.06 0 -5.25 2.38 -7.06 9.38 -7.06 l4.38 0 0 2.19 0 2.19 -3.69 0 c-4.69 0 -5.69 0.38 -5.69 2.25 0 1.50 0.25 1.63 5.13 2.44 3.56 0.56 5.63 2.63 5.75 5.75 0.13 5.38 -2.94 7.69 -10.19 7.69 l-4.44 0 0 -2.19z"/>
  <path d="M322.44 542.06 c-2.94 -1.81 -3.69 -3.88 -3.69 -10.44 0 -5.94 0.06 -6.06 2.06 -8.25 2.69 -2.94 6.13 -3.50 9.69 -1.50 3.56 2 4.19 3.56 4.19 10.44 l0 5.88 -2.63 2.50 c-2.25 2.06 -3.06 2.44 -5.31 2.44 -1.50 0 -3.44 -0.50 -4.31 -1.06z m5.94 -3.69 c2.31 -0.88 2.75 -10.25 0.56 -12.44 -0.94 -1 -3.13 -1.19 -4.38 -0.44 -1.19 0.75 -2.06 3.69 -2.06 6.75 0 5.13 2.31 7.50 5.88 6.13z"/>
  <path d="M342.13 542.50 c-3.69 -1.50 -5.19 -7.50 -4.31 -17.19 0.44 -4.69 0.50 -4.75 2.13 -4.56 l1.63 0.19 0.31 7.94 c0.19 5.31 0.56 8.19 1.13 8.75 0.44 0.44 2.44 0.94 4.38 1.13 3.50 0.31 3.56 0.38 3.56 2.19 0 1.88 0 1.88 -3.75 2 -2.06 0.06 -4.38 -0.13 -5.06 -0.44z"/>
  <path d="M358.06 542.25 c-3.50 -2 -4.06 -4.25 -3.81 -15.81 0.13 -5.63 0.19 -5.81 1.56 -5.81 2.56 0 2.94 1.06 2.94 8.81 0 8.13 0.50 9.31 3.75 9.31 3.13 0 3.75 -1.75 3.75 -10.44 l0 -7.69 2.25 0 2.19 0 -0.19 9.06 -0.19 9.06 -2 1.94 c-1.63 1.69 -2.56 2.06 -5.31 2.25 -2.13 0.13 -3.88 -0.13 -4.94 -0.69z"/>
  <path d="M380.50 534.25 l-0.19 -8.94 -3.25 -0.19 -3.31 -0.19 0 -2.19 0 -2.13 9.06 0 9.06 0 0 2.13 0 2.19 -3.25 0.19 -3.31 0.19 -0.19 8.94 -0.19 8.88 -2.13 0 -2.13 0 -0.19 -8.88z"/>
  <path d="M395.63 531.88 l0 -11.25 2.19 0 2.19 0 0 11.25 0 11.25 -2.19 0 -2.19 0 0 -11.25z"/>
  <path d="M407 541.88 c-2.75 -1.69 -3.88 -4.63 -3.88 -10.13 0 -5.56 1.25 -8.44 4.38 -10.06 3.44 -1.81 7.25 -1.13 9.88 1.75 l2.13 2.31 -0.25 6.50 c-0.19 6.31 -0.25 6.50 -2.19 8.44 -2.56 2.63 -7 3.13 -10.06 1.19z m7 -4.50 c0.69 -0.94 1 -2.81 1 -5.94 0 -5.06 -0.81 -6.44 -3.75 -6.44 -2.69 0 -3.75 2 -3.75 6.88 0 4.88 1.06 6.88 3.75 6.88 1.13 0 2.13 -0.50 2.75 -1.38z"/>
  <path d="M422.50 531.81 l0 -11.25 2.06 0.19 c1.81 0.19 2.38 0.81 5.75 6.25 l3.75 6 0.19 -6.19 0.19 -6.19 2.13 0 2.19 0 0 11.25 0 11.25 -2.13 0 c-1.75 0 -2.31 -0.38 -3.06 -1.69 -1.75 -3.44 -5.56 -9.88 -6.13 -10.44 -0.31 -0.38 -0.56 1.81 -0.56 5.75 l0 6.38 -2.19 0 -2.19 0 0 -11.31z"/>
  <path d="M443.56 542.75 c-0.81 -0.25 -1.06 -0.88 -0.94 -2 0.19 -1.63 0.31 -1.69 5.06 -2 4.81 -0.31 6 -0.94 6.06 -3 0 -1.06 -2.63 -2 -5.56 -2 -5.38 0 -8.13 -7.25 -4.19 -11.13 1.44 -1.44 2.25 -1.69 6.31 -1.88 5.94 -0.31 6.44 -0.13 6.06 2.31 l-0.25 1.94 -4.31 0 c-3.50 0 -4.38 0.19 -4.88 1.19 -1 1.81 0.44 3 4.19 3.31 3.75 0.38 6.06 2.06 6.69 4.94 0.56 2.50 -0.69 5.88 -2.56 7.13 -1.63 1.06 -9.44 1.81 -11.69 1.19z"/>
  <path d="M391.88 503.38 c-0.88 -0.19 -3.63 -0.88 -6.13 -1.63 -4.31 -1.25 -4.56 -1.25 -5.75 -0.19 -2 1.81 -2.81 0.88 -3 -3.50 -0.31 -5.75 0.50 -13.69 1.38 -13.69 0.38 0 1.50 1.63 2.56 3.63 2.38 4.56 6.81 9.38 10 10.81 6 2.75 13.69 0.81 15.63 -3.94 1.25 -3.19 1.19 -4.75 -0.31 -7.19 -1.50 -2.44 -3.06 -3.31 -10.63 -5.63 -7.94 -2.50 -11.69 -4.50 -14.81 -7.88 -3.19 -3.44 -4.19 -6.81 -3.75 -12.13 0.88 -9.25 8 -15.69 17.94 -16.31 3.81 -0.19 5.38 0 8.44 1.19 2.25 0.88 4.94 1.38 6.75 1.38 l2.94 -0.13 0 7.50 c0 4.13 -0.25 7.44 -0.56 7.44 -0.31 0 -2 -2.19 -3.81 -4.88 -3.50 -5.31 -5.88 -7.31 -10.56 -8.69 -8.63 -2.50 -15.44 5.13 -10.06 11.31 1.63 1.81 3.31 2.63 10.63 5.06 10 3.31 13.75 5.56 16.13 9.63 1.50 2.56 1.69 3.44 1.63 8.50 0 3.75 -0.38 6.38 -1 7.94 -1.56 3.56 -6.38 8.31 -10 9.88 -3.13 1.31 -10.25 2.13 -13.63 1.50z"/>
  <path d="M124.81 502.06 c-3.50 -0.19 -4.81 -0.44 -4.63 -1 0.13 -0.44 0.94 -0.81 1.81 -0.94 1.50 -0.19 2 -1.19 6.44 -12.81 6.38 -16.75 15.25 -38.69 16.06 -39.63 0.38 -0.50 2.06 -0.81 3.88 -0.81 l3.25 0 1.13 3.31 c6.38 18.13 17.75 48.63 18.63 49.69 0.38 0.38 1.19 0.75 1.81 0.75 0.69 0 1.19 0.31 1.19 0.63 0 0.38 -4.50 0.63 -12.19 0.63 -7.69 0 -12.19 -0.25 -12.19 -0.63 0 -0.31 0.81 -0.63 1.81 -0.63 1.06 0 2 -0.25 2.19 -0.56 0.19 -0.25 -0.75 -3.69 -2.06 -7.63 l-2.38 -7.13 -8 0 -8 0 -2.38 6.56 c-1.31 3.63 -2.38 6.88 -2.38 7.31 -0.06 0.44 0.94 0.94 2.13 1.19 2.63 0.50 3.06 2.19 0.50 2 -1 -0.06 -3.94 -0.25 -6.63 -0.31z m22.69 -21.56 c-0.06 -0.44 -1.25 -4.31 -2.75 -8.63 -2.50 -7.13 -2.81 -7.69 -3.44 -6.25 -1.31 3 -5.69 14.63 -5.69 15.13 0 0.25 2.69 0.50 5.94 0.50 4.38 0 5.94 -0.19 5.94 -0.75z"/>
  <path d="M270.81 502 c-5.63 -0.19 -7.38 -0.81 -4.31 -1.63 0.81 -0.19 1.63 -0.88 1.81 -1.44 1.19 -3.75 16.50 -43.31 18.75 -48.44 l1.63 -3.63 3.38 0 3.38 0 9.94 26.56 c8.56 22.88 10.13 26.69 11.31 26.94 3.69 0.94 -0.31 1.50 -10.81 1.50 -10.63 0 -14.25 -0.56 -9.63 -1.44 1.06 -0.25 1.88 -0.75 1.88 -1.19 0 -0.44 -1 -3.81 -2.25 -7.56 l-2.25 -6.75 -7.88 0.19 -7.81 0.19 -2.50 7.06 c-2.69 7.56 -2.63 8.19 0.69 8.25 1.31 0 1.94 0.94 0.94 1.38 -0.31 0.13 -3.13 0.13 -6.25 0z m21.06 -21.19 c0 -0.69 -4.94 -14.56 -5.56 -15.69 -0.31 -0.63 -1.44 1.63 -3.44 7.06 -1.56 4.38 -2.88 8.19 -2.88 8.50 0 0.31 2.69 0.56 5.94 0.56 3.25 0 5.94 -0.19 5.94 -0.44z"/>
  <path d="M321.50 501.94 c-0.69 -0.69 -0.06 -1.25 1.63 -1.63 l1.88 -0.44 0 -25.25 0 -25.25 -1.56 -0.63 c-3.69 -1.38 -1.38 -1.88 9 -1.88 l10.56 0 9.75 18 9.75 17.94 -0.13 -16.88 -0.19 -16.88 -1.69 -0.19 c-1 -0.13 -1.75 -0.56 -1.75 -1.13 0 -0.69 1.19 -0.88 5.94 -0.88 4.75 0 5.94 0.19 5.94 0.88 0 0.50 -0.75 1 -1.69 1.13 -1.19 0.13 -1.81 0.63 -2.13 1.75 -0.25 0.88 -0.44 12.75 -0.50 26.44 l-0.06 24.81 -5.56 0 -5.63 0 -3.88 -7.31 c-6.06 -11.38 -20.56 -37.31 -21.25 -38 -0.38 -0.38 -0.50 7.25 -0.44 21.25 l0.19 21.81 2.06 0.63 c1.13 0.31 1.94 0.81 1.88 1.13 -0.19 0.56 -11.56 1.06 -12.13 0.56z"/>
  <path d="M433.63 502 c-6.31 -0.06 -10.50 -0.38 -10.50 -0.75 0 -0.38 0.69 -0.63 1.50 -0.63 0.88 0 1.75 -0.25 1.94 -0.63 0.56 -0.88 0.63 -49.56 0.13 -50.50 -0.31 -0.38 -1.19 -0.75 -2.06 -0.75 -0.94 0 -1.50 -0.38 -1.50 -0.94 0 -0.81 1.69 -0.94 11.56 -0.94 9.88 0 11.56 0.13 11.56 0.94 0 0.63 -0.63 0.94 -1.88 0.94 -2.44 0 -2.56 0.63 -2.38 12.81 l0.19 10 7.69 0.19 7.63 0.19 0.63 -1.63 c0.69 -1.81 0.81 -14.19 0.25 -18.63 -0.38 -2.50 -0.63 -2.88 -2 -3.06 -0.88 -0.13 -1.69 -0.56 -1.88 -0.94 -0.19 -0.63 2.44 -0.81 11.75 -0.81 9.31 0 11.94 0.19 11.75 0.81 -0.19 0.38 -1.19 0.81 -2.25 0.94 l-2 0.19 0 25.56 0 25.56 2.19 0.44 c1.19 0.19 2 0.63 1.81 0.94 -0.44 0.75 -23.38 0.75 -23.38 0 0 -0.31 0.75 -0.69 1.69 -0.81 2.31 -0.25 2.56 -1.44 2.63 -14.13 l0.06 -10.81 -8.25 0.19 -8.31 0.19 -0.19 11.13 c-0.19 11.94 0.13 13.56 2.69 13.56 1.81 0 2.13 1 0.50 1.31 -0.63 0.13 -5.81 0.19 -11.56 0.06z"/>
  <path d="M175 501.25 c0 -0.38 0.81 -0.81 1.81 -1 1.56 -0.31 2 -1 4.13 -6.38 9.69 -24.81 18.06 -45.56 18.56 -46.19 0.38 -0.50 2.06 -0.81 3.94 -0.81 l3.25 0 5.44 15.19 c14.31 39.63 13.63 37.94 15.19 38.31 3.88 1 0.31 1.50 -10.44 1.50 -7.50 0 -11.88 -0.25 -11.88 -0.63 0 -0.31 0.63 -0.63 1.44 -0.63 2.88 0 2.94 -1 0.50 -8.31 l-2.38 -7 -7.81 -0.19 -7.81 -0.19 -2.25 5.88 c-3.44 9.06 -3.44 9.06 -0.81 9.50 4.06 0.81 1.69 1.56 -4.69 1.56 -3.81 0 -6.19 -0.25 -6.19 -0.63z m27.94 -20.75 c-0.13 -0.44 -1.50 -4.25 -2.94 -8.50 -1.50 -4.25 -2.88 -7.44 -3.19 -7.19 -0.38 0.44 -6.19 15.63 -6.19 16.25 0 0.13 2.81 0.19 6.31 0.19 4.81 0 6.25 -0.19 6 -0.75z"/>
  <path d="M235.63 501.25 c0 -0.31 0.69 -0.63 1.56 -0.63 0.88 0 1.81 -0.50 2.19 -1.19 0.38 -0.69 0.63 -5.69 0.63 -11.75 l0 -10.56 -6.88 -13.88 c-3.81 -7.63 -7.44 -14.19 -8.13 -14.63 -0.69 -0.44 -1.25 -1 -1.25 -1.25 0 -0.31 4.69 -0.50 10.38 -0.50 9.63 0 10.38 0.06 9.94 1.13 -0.25 0.56 -0.44 1.56 -0.44 2.13 0.06 1.13 8 18.56 8.94 19.50 0.50 0.56 1.50 -1.38 7.19 -14.19 2.81 -6.31 2.81 -6.44 -0.38 -6.81 -0.88 -0.13 -1.50 -0.44 -1.44 -0.81 0.13 -0.38 3.06 -0.69 6.81 -0.81 5.19 -0.13 6.56 0 6.38 0.63 -0.19 0.44 -0.88 0.88 -1.63 1 -0.69 0.13 -1.56 0.56 -1.94 0.94 -0.31 0.44 -3.31 6.50 -6.56 13.50 l-6 12.75 0 12.13 0 12.13 1.88 0.38 c4.63 0.88 1 1.44 -9.69 1.44 -7.31 0 -11.56 -0.25 -11.56 -0.63z"/>
  <path d="M292.06 422.56 c-5.63 -3.31 -8.31 -8.06 -8.31 -14.75 0 -2.25 0.38 -5.06 0.88 -6.25 1.31 -3.13 5.56 -7.44 8.63 -8.75 1.50 -0.69 2.81 -1.31 3 -1.44 0.19 -0.13 0.44 -12.63 0.63 -27.81 l0.31 -27.63 3.13 0 3.13 0 0.19 27.63 0.13 27.69 3.13 1.31 c12.38 5.31 13.50 23 2 29.81 -2.38 1.31 -3.81 1.69 -8.19 1.88 -5.06 0.19 -5.56 0.06 -8.63 -1.69z"/>
  <path d="M240.38 396.44 c-3.50 -0.56 -8.38 -4.50 -10.56 -8.63 -2 -3.69 -1.94 -12.19 0 -15.38 5 -7.94 13.94 -10.88 22 -7.13 l3.38 1.63 2.56 -1.69 c1.44 -0.94 5.31 -3.81 8.69 -6.31 l6.06 -4.63 0 -9.38 0 -9.38 3.31 0.19 3.25 0.19 0.19 9.69 c0.06 5.31 0 10.31 -0.19 11.06 -0.19 0.88 -3.88 3.94 -10 8.44 -7.19 5.13 -9.63 7.25 -9.38 7.94 3.06 7.75 0.63 16.50 -5.75 20.81 -3.81 2.63 -7.88 3.38 -13.56 2.56z"/>
  <path d="M351.56 396.31 c-3 -0.63 -5.63 -2.31 -8.31 -5.38 -3 -3.44 -4.19 -7.63 -3.63 -12.75 0.19 -1.94 0.44 -4.19 0.56 -5 0.13 -1.25 -1.13 -2.44 -8 -7.38 -12.19 -8.81 -10.94 -6.63 -10.94 -19.38 l0 -10.88 3 0.19 2.94 0.19 0.31 9.19 c0.25 8.25 0.44 9.31 1.56 10.13 0.69 0.50 4.56 3.38 8.63 6.38 l7.38 5.38 3.63 -1.63 c8.81 -3.94 18.69 -0.25 22.44 8.31 1.50 3.50 1.31 10.38 -0.44 13.69 -3.75 7.25 -10.94 10.63 -19.13 8.94z"/>
  <path d="M191.25 347.56 c-7.13 -1.81 -12.50 -10 -11.69 -17.94 0.63 -5.81 3.75 -10.13 9.50 -12.81 4.25 -2.06 8.06 -2.31 12.13 -0.88 l2.63 0.88 7.13 -9.63 c8.31 -11.19 6.88 -10.44 20 -10.19 l8.75 0.19 0.19 3.25 0.19 3.25 -9.25 0.19 -9.19 0.19 -6.13 8.13 c-3.50 4.63 -6 8.50 -5.88 9.06 0.19 0.50 0.88 2.50 1.56 4.38 1.56 4.19 1.63 6.88 0.38 11.13 -1.38 4.44 -6.44 9.63 -10.50 10.63 -3 0.81 -7.19 0.88 -9.81 0.19z"/>
  <path d="M399.13 347.50 c-4.19 -1.25 -8.63 -5.63 -10.44 -10.31 -1.19 -3.25 -0.88 -9.94 0.75 -13.19 1.63 -3.44 2.06 -2.44 -5.63 -12.88 l-5.38 -7.38 -9.19 0 -9.25 0 0 -3.50 0 -3.56 10.94 0.31 c9.81 0.31 11.06 0.44 11.88 1.50 0.50 0.69 3.75 5.06 7.19 9.75 l6.25 8.56 2.88 -1 c3.63 -1.25 9.06 -0.81 12.56 0.94 3.25 1.69 7.25 6.25 8.19 9.38 0.94 3 0.94 7.81 0.13 10.88 -0.38 1.25 -2.06 3.88 -3.81 5.75 -2.44 2.69 -3.88 3.69 -6.38 4.44 -3.44 1 -7.81 1.13 -10.69 0.31z"/>
  <path d="M253.44 326.88 c-1.06 -0.63 -2.63 -2.13 -3.44 -3.25 l-1.56 -2.06 0 -45.88 0 -45.81 2.94 -2.69 c1.63 -1.44 3.81 -2.81 4.94 -3.06 1.06 -0.19 21.13 -0.38 44.56 -0.38 l42.63 0 2.75 1.44 c4.31 2.13 5.38 4.25 5.88 11.50 0.19 3.38 0.31 23.69 0.25 45.19 l-0.19 39.06 -1.44 2.31 c-0.81 1.25 -2.38 2.88 -3.50 3.56 -2.06 1.31 -2.81 1.31 -47 1.31 -43.44 0 -45 -0.06 -46.81 -1.25z"/>
  <path d="M160.75 290.88 c-5.88 -2.94 -9.06 -8.31 -9.06 -15.31 0 -7.25 3.63 -12.31 10.69 -14.94 4.81 -1.81 8.56 -1.63 13.19 0.69 4.13 2.06 7.81 6.06 8.50 9.38 l0.44 1.81 27.75 0 27.75 0 0 3.44 0 3.44 -27.69 0 -27.75 0 -0.75 2.63 c-1.13 3.69 -6.50 8.81 -10.25 9.81 -4.81 1.19 -9.19 0.88 -12.81 -0.94z"/>
  <path d="M425.31 291.31 c-3.25 -1.50 -6.81 -5.25 -8.44 -8.94 l-1.31 -3 -27.75 0 -27.81 0 0 -3.44 0 -3.44 27.81 0 27.75 0 1.31 -2.94 c1.56 -3.63 4.44 -6.69 7.81 -8.50 1.94 -1.06 3.56 -1.38 7.50 -1.38 3.94 0 5.56 0.31 7.50 1.38 7.31 3.88 10.50 11.75 8.19 19.88 -1.31 4.50 -6.13 9.63 -10.13 10.81 -3.81 1.13 -9.50 0.94 -12.44 -0.44z"/>
  <path d="M215.56 251.13 c-1.56 -2.19 -4.75 -6.63 -7.06 -9.94 l-4.19 -6 -2.31 0.81 c-3.56 1.25 -10.38 1.13 -13.13 -0.31 -2.75 -1.44 -6.44 -5.19 -8 -8.19 -1.44 -2.69 -1.56 -11.38 -0.31 -13.75 3.44 -6.25 9 -9.69 15.69 -9.69 12.13 0.06 19.94 13.19 14.31 24.19 -1.44 2.88 -1.81 2.06 5.06 11.44 2.25 3.13 4.56 6.38 5.19 7.38 l1.06 1.69 9.06 0 9.06 0 0 3.13 0 3.13 -10.81 0 -10.81 0 -2.81 -3.88z"/>
  <path d="M360 251.88 l0 -3.06 9.19 -0.19 9.19 -0.19 6.13 -8.44 c3.31 -4.63 6.13 -8.75 6.13 -9.13 0 -0.44 -0.56 -1.94 -1.25 -3.44 -1.69 -3.81 -1.69 -10.50 0.06 -14.13 2.50 -5.19 9.38 -9.56 15 -9.56 3.75 0 8.31 2.06 11.63 5.38 3.63 3.56 4.56 6.06 4.56 11.88 0 6.56 -4.56 13.13 -10.56 15.19 -2.63 0.88 -9.38 0.88 -11.63 0.06 -0.94 -0.38 -2.06 -0.44 -2.50 -0.19 -0.44 0.31 -2.88 3.31 -5.38 6.75 -2.44 3.44 -5.50 7.56 -6.69 9.25 l-2.25 2.94 -10.81 0 -10.81 0 0 -3.13z"/>
  <path d="M272.50 206.75 l-0.06 -9.56 -8.44 -6.13 -8.50 -6.06 -3.38 1.63 c-4.81 2.31 -11.50 2.38 -15.50 0 -5.50 -3.25 -8.50 -8.38 -8.50 -14.75 0 -4.75 1.31 -8.06 4.44 -11.19 12.06 -12.19 32.31 -0.81 27.81 15.56 -1.13 4.13 -1.94 3.13 10.13 11.75 l8.13 5.88 0.44 6.38 c0.31 4.88 0.19 13.56 -0.25 15.88 -0.06 0.06 -1.44 0.13 -3.19 0.13 l-3.13 0 0 -9.50z"/>
  <path d="M296.75 188.38 l-0.19 -28 -1.94 -0.50 c-2.75 -0.69 -8 -5.56 -9.56 -8.81 -1 -2 -1.31 -3.94 -1.31 -7.38 0 -4 0.25 -5.06 1.94 -7.94 3.19 -5.56 9.19 -8.63 15.81 -8.13 4.31 0.38 6.75 1.44 10.06 4.38 4.31 3.75 6.31 10.75 4.75 16.56 -1.31 4.88 -6.69 10.44 -10.81 11.25 l-1.75 0.31 -0.13 27.94 -0.19 27.88 -3.25 0.19 -3.31 0.19 -0.13 -27.94z"/>
  <path d="M321.25 205.31 l0 -10.94 3.13 -2.44 c1.69 -1.31 6.06 -4.50 9.69 -7.06 6.25 -4.31 6.56 -4.69 6.25 -6.44 -0.88 -5.25 -1 -9 -0.38 -11.25 1.06 -3.94 4 -7.38 8.13 -9.56 9.19 -4.94 20.56 -0.38 23.44 9.31 2 6.63 0.94 11.06 -3.81 16.19 -3.31 3.56 -4.94 4.50 -9.63 5.25 -3 0.50 -8.38 -0.56 -10.63 -2.19 -1 -0.69 -2.19 -1.19 -2.63 -1 -0.88 0.31 -13.75 9.75 -15.88 11.63 -1.38 1.19 -1.44 1.69 -1.44 10.31 l0 9.13 -3.13 0 -3.13 0 0 -10.94z"/>
 </g>
</svg>